<!--?xml version="1.0" standalone="no"?-->              <svg id="sw-js-blob-svg" viewBox="0 0 100 100" xmlns="http://www.w3.org/2000/svg">                    <defs>                         <linearGradient id="sw-gradient" x1="0" x2="1" y1="1" y2="0">                            <stop id="stop1" stop-color="rgba(248, 117, 55, 1)" offset="0%"></stop>                            <stop id="stop2" stop-color="rgba(251, 168, 31, 1)" offset="100%"></stop>                        </linearGradient>                    </defs>                <path fill="url(#sw-gradient)" d="M2.3,-5.4C3.6,-1.6,5.8,-1.5,7.7,0C9.6,1.5,11.1,4.4,10,5.3C8.9,6.3,5.2,5.2,1.7,8C-1.9,10.8,-5.3,17.4,-11.5,20.1C-17.8,22.9,-26.8,21.8,-27.4,17.4C-28,13.1,-20.2,5.4,-17.1,-1.5C-14.1,-8.4,-15.9,-14.7,-13.8,-18.5C-11.7,-22.2,-5.9,-23.5,-2.7,-20.2C0.5,-17,0.9,-9.3,2.3,-5.4Z" width="100%" height="100%" transform="translate(50 50)" stroke-width="0" style="transition: 0.3s;"></path>              </svg>